<svg version="1.1" xmlns="http://www.w3.org/2000/svg" xmlns:xlink="http://www.w3.org/1999/xlink" width="984" height="721"><defs><clipPath id="QAsgSglCsTUE"><path fill="none" stroke="none" d=" M 0 0 L 984 0 L 984 721 L 0 721 L 0 0 Z"/></clipPath></defs><g transform="scale(1,1)" clip-path="url(#QAsgSglCsTUE)"><g><rect fill="rgb(255,255,255)" stroke="none" x="0" y="0" width="984" height="721" fill-opacity="1"/><path fill="none" stroke="rgb(192,192,192)" paint-order="fill stroke markers" d=" M 33.5 0.5 L 33.5 721.5 M 33.5 0.5 L 33.5 721.5 M 108.5 0.5 L 108.5 721.5 M 183.5 0.5 L 183.5 721.5 M 258.5 0.5 L 258.5 721.5 M 408.5 0.5 L 408.5 721.5 M 483.5 0.5 L 483.5 721.5 M 557.5 0.5 L 557.5 721.5 M 632.5 0.5 L 632.5 721.5 M 707.5 0.5 L 707.5 721.5 M 782.5 0.5 L 782.5 721.5 M 857.5 0.5 L 857.5 721.5 M 932.5 0.5 L 932.5 721.5" stroke-opacity="1" stroke-linecap="round" stroke-linejoin="round" stroke-miterlimit="10"/><path fill="none" stroke="rgb(192,192,192)" paint-order="fill stroke markers" d=" M 3.5 0.5 L 3.5 721.5 M 18.5 0.5 L 18.5 721.5 M 48.5 0.5 L 48.5 721.5 M 63.5 0.5 L 63.5 721.5 M 78.5 0.5 L 78.5 721.5 M 93.5 0.5 L 93.5 721.5 M 123.5 0.5 L 123.5 721.5 M 138.5 0.5 L 138.5 721.5 M 153.5 0.5 L 153.5 721.5 M 168.5 0.5 L 168.5 721.5 M 198.5 0.5 L 198.5 721.5 M 213.5 0.5 L 213.5 721.5 M 228.5 0.5 L 228.5 721.5 M 243.5 0.5 L 243.5 721.5 M 273.5 0.5 L 273.5 721.5 M 288.5 0.5 L 288.5 721.5 M 303.5 0.5 L 303.5 721.5 M 318.5 0.5 L 318.5 721.5 M 348.5 0.5 L 348.5 721.5 M 363.5 0.5 L 363.5 721.5 M 378.5 0.5 L 378.5 721.5 M 393.5 0.5 L 393.5 721.5 M 422.5 0.5 L 422.5 721.5 M 437.5 0.5 L 437.5 721.5 M 452.5 0.5 L 452.5 721.5 M 467.5 0.5 L 467.5 721.5 M 497.5 0.5 L 497.5 721.5 M 513.5 0.5 L 513.5 721.5 M 528.5 0.5 L 528.5 721.5 M 543.5 0.5 L 543.5 721.5 M 572.5 0.5 L 572.5 721.5 M 587.5 0.5 L 587.5 721.5 M 602.5 0.5 L 602.5 721.5 M 617.5 0.5 L 617.5 721.5 M 647.5 0.5 L 647.5 721.5 M 662.5 0.5 L 662.5 721.5 M 677.5 0.5 L 677.5 721.5 M 692.5 0.5 L 692.5 721.5 M 722.5 0.5 L 722.5 721.5 M 737.5 0.5 L 737.5 721.5 M 752.5 0.5 L 752.5 721.5 M 767.5 0.5 L 767.5 721.5 M 797.5 0.5 L 797.5 721.5 M 812.5 0.5 L 812.5 721.5 M 827.5 0.5 L 827.5 721.5 M 842.5 0.5 L 842.5 721.5 M 872.5 0.5 L 872.5 721.5 M 887.5 0.5 L 887.5 721.5 M 902.5 0.5 L 902.5 721.5 M 917.5 0.5 L 917.5 721.5 M 947.5 0.5 L 947.5 721.5 M 962.5 0.5 L 962.5 721.5 M 977.5 0.5 L 977.5 721.5" stroke-opacity="0.23529411764705882" stroke-linecap="round" stroke-linejoin="round" stroke-miterlimit="10"/><path fill="none" stroke="rgb(192,192,192)" paint-order="fill stroke markers" d=" M 0.5 73.5 L 984.5 73.5 M 0.5 73.5 L 984.5 73.5 M 0.5 148.5 L 984.5 148.5 M 0.5 223.5 L 984.5 223.5 M 0.5 298.5 L 984.5 298.5 M 0.5 449.5 L 984.5 449.5 M 0.5 524.5 L 984.5 524.5 M 0.5 599.5 L 984.5 599.5 M 0.5 674.5 L 984.5 674.5" stroke-opacity="1" stroke-linecap="round" stroke-linejoin="round" stroke-miterlimit="10"/><path fill="none" stroke="rgb(192,192,192)" paint-order="fill stroke markers" d=" M 0.5 13.5 L 984.5 13.5 M 0.5 28.5 L 984.5 28.5 M 0.5 43.5 L 984.5 43.5 M 0.5 58.5 L 984.5 58.5 M 0.5 88.5 L 984.5 88.5 M 0.5 103.5 L 984.5 103.5 M 0.5 118.5 L 984.5 118.5 M 0.5 133.5 L 984.5 133.5 M 0.5 163.5 L 984.5 163.5 M 0.5 178.5 L 984.5 178.5 M 0.5 193.5 L 984.5 193.5 M 0.5 208.5 L 984.5 208.5 M 0.5 238.5 L 984.5 238.5 M 0.5 253.5 L 984.5 253.5 M 0.5 268.5 L 984.5 268.5 M 0.5 283.5 L 984.5 283.5 M 0.5 314.5 L 984.5 314.5 M 0.5 329.5 L 984.5 329.5 M 0.5 344.5 L 984.5 344.5 M 0.5 359.5 L 984.5 359.5 M 0.5 389.5 L 984.5 389.5 M 0.5 404.5 L 984.5 404.5 M 0.5 419.5 L 984.5 419.5 M 0.5 434.5 L 984.5 434.5 M 0.5 464.5 L 984.5 464.5 M 0.5 479.5 L 984.5 479.5 M 0.5 494.5 L 984.5 494.5 M 0.5 509.5 L 984.5 509.5 M 0.5 539.5 L 984.5 539.5 M 0.5 554.5 L 984.5 554.5 M 0.5 569.5 L 984.5 569.5 M 0.5 584.5 L 984.5 584.5 M 0.5 614.5 L 984.5 614.5 M 0.5 629.5 L 984.5 629.5 M 0.5 644.5 L 984.5 644.5 M 0.5 659.5 L 984.5 659.5 M 0.5 689.5 L 984.5 689.5 M 0.5 704.5 L 984.5 704.5 M 0.5 719.5 L 984.5 719.5" stroke-opacity="0.23529411764705882" stroke-linecap="round" stroke-linejoin="round" stroke-miterlimit="10"/><path fill="none" stroke="rgb(0,0,0)" paint-order="fill stroke markers" d=" M 333.5 2.5 L 333.5 721.5" stroke-opacity="1" stroke-miterlimit="10"/><path fill="none" stroke="rgb(0,0,0)" paint-order="fill stroke markers" d=" M 333.5 1.5 L 329.5 5.5" stroke-opacity="1" stroke-miterlimit="10"/><path fill="none" stroke="rgb(0,0,0)" paint-order="fill stroke markers" d=" M 333.5 1.5 L 337.5 5.5" stroke-opacity="1" stroke-miterlimit="10"/><path fill="none" stroke="rgb(0,0,0)" paint-order="fill stroke markers" d=" M 0.5 374.5 L 982.5 374.5" stroke-opacity="1" stroke-miterlimit="10"/><path fill="none" stroke="rgb(0,0,0)" paint-order="fill stroke markers" d=" M 983.5 374.5 L 979.5 370.5" stroke-opacity="1" stroke-miterlimit="10"/><path fill="none" stroke="rgb(0,0,0)" paint-order="fill stroke markers" d=" M 983.5 374.5 L 979.5 378.5" stroke-opacity="1" stroke-miterlimit="10"/><text fill="none" stroke="rgb(255,255,255)" font-family="geogebra-sans-serif, sans-serif" font-size="12px" font-style="normal" font-weight="normal" text-decoration="normal" x="28" y="390" text-anchor="start" dominant-baseline="alphabetic" stroke-opacity="1" stroke-linejoin="bevel" stroke-miterlimit="10" stroke-width="3">–4</text><text fill="rgb(0,0,0)" stroke="none" font-family="geogebra-sans-serif, sans-serif" font-size="12px" font-style="normal" font-weight="normal" text-decoration="normal" x="28" y="390" text-anchor="start" dominant-baseline="alphabetic" fill-opacity="1">–4</text><text fill="none" stroke="rgb(255,255,255)" font-family="geogebra-sans-serif, sans-serif" font-size="12px" font-style="normal" font-weight="normal" text-decoration="normal" x="103" y="390" text-anchor="start" dominant-baseline="alphabetic" stroke-opacity="1" stroke-linejoin="bevel" stroke-miterlimit="10" stroke-width="3">–3</text><text fill="rgb(0,0,0)" stroke="none" font-family="geogebra-sans-serif, sans-serif" font-size="12px" font-style="normal" font-weight="normal" text-decoration="normal" x="103" y="390" text-anchor="start" dominant-baseline="alphabetic" fill-opacity="1">–3</text><text fill="none" stroke="rgb(255,255,255)" font-family="geogebra-sans-serif, sans-serif" font-size="12px" font-style="normal" font-weight="normal" text-decoration="normal" x="178" y="390" text-anchor="start" dominant-baseline="alphabetic" stroke-opacity="1" stroke-linejoin="bevel" stroke-miterlimit="10" stroke-width="3">–2</text><text fill="rgb(0,0,0)" stroke="none" font-family="geogebra-sans-serif, sans-serif" font-size="12px" font-style="normal" font-weight="normal" text-decoration="normal" x="178" y="390" text-anchor="start" dominant-baseline="alphabetic" fill-opacity="1">–2</text><text fill="none" stroke="rgb(255,255,255)" font-family="geogebra-sans-serif, sans-serif" font-size="12px" font-style="normal" font-weight="normal" text-decoration="normal" x="253" y="390" text-anchor="start" dominant-baseline="alphabetic" stroke-opacity="1" stroke-linejoin="bevel" stroke-miterlimit="10" stroke-width="3">–1</text><text fill="rgb(0,0,0)" stroke="none" font-family="geogebra-sans-serif, sans-serif" font-size="12px" font-style="normal" font-weight="normal" text-decoration="normal" x="253" y="390" text-anchor="start" dominant-baseline="alphabetic" fill-opacity="1">–1</text><text fill="none" stroke="rgb(255,255,255)" font-family="geogebra-sans-serif, sans-serif" font-size="12px" font-style="normal" font-weight="normal" text-decoration="normal" x="406" y="390" text-anchor="start" dominant-baseline="alphabetic" stroke-opacity="1" stroke-linejoin="bevel" stroke-miterlimit="10" stroke-width="3">1</text><text fill="rgb(0,0,0)" stroke="none" font-family="geogebra-sans-serif, sans-serif" font-size="12px" font-style="normal" font-weight="normal" text-decoration="normal" x="406" y="390" text-anchor="start" dominant-baseline="alphabetic" fill-opacity="1">1</text><text fill="none" stroke="rgb(255,255,255)" font-family="geogebra-sans-serif, sans-serif" font-size="12px" font-style="normal" font-weight="normal" text-decoration="normal" x="480" y="390" text-anchor="start" dominant-baseline="alphabetic" stroke-opacity="1" stroke-linejoin="bevel" stroke-miterlimit="10" stroke-width="3">2</text><text fill="rgb(0,0,0)" stroke="none" font-family="geogebra-sans-serif, sans-serif" font-size="12px" font-style="normal" font-weight="normal" text-decoration="normal" x="480" y="390" text-anchor="start" dominant-baseline="alphabetic" fill-opacity="1">2</text><text fill="none" stroke="rgb(255,255,255)" font-family="geogebra-sans-serif, sans-serif" font-size="12px" font-style="normal" font-weight="normal" text-decoration="normal" x="555" y="390" text-anchor="start" dominant-baseline="alphabetic" stroke-opacity="1" stroke-linejoin="bevel" stroke-miterlimit="10" stroke-width="3">3</text><text fill="rgb(0,0,0)" stroke="none" font-family="geogebra-sans-serif, sans-serif" font-size="12px" font-style="normal" font-weight="normal" text-decoration="normal" x="555" y="390" text-anchor="start" dominant-baseline="alphabetic" fill-opacity="1">3</text><text fill="none" stroke="rgb(255,255,255)" font-family="geogebra-sans-serif, sans-serif" font-size="12px" font-style="normal" font-weight="normal" text-decoration="normal" x="630" y="390" text-anchor="start" dominant-baseline="alphabetic" stroke-opacity="1" stroke-linejoin="bevel" stroke-miterlimit="10" stroke-width="3">4</text><text fill="rgb(0,0,0)" stroke="none" font-family="geogebra-sans-serif, sans-serif" font-size="12px" font-style="normal" font-weight="normal" text-decoration="normal" x="630" y="390" text-anchor="start" dominant-baseline="alphabetic" fill-opacity="1">4</text><text fill="none" stroke="rgb(255,255,255)" font-family="geogebra-sans-serif, sans-serif" font-size="12px" font-style="normal" font-weight="normal" text-decoration="normal" x="705" y="390" text-anchor="start" dominant-baseline="alphabetic" stroke-opacity="1" stroke-linejoin="bevel" stroke-miterlimit="10" stroke-width="3">5</text><text fill="rgb(0,0,0)" stroke="none" font-family="geogebra-sans-serif, sans-serif" font-size="12px" font-style="normal" font-weight="normal" text-decoration="normal" x="705" y="390" text-anchor="start" dominant-baseline="alphabetic" fill-opacity="1">5</text><text fill="none" stroke="rgb(255,255,255)" font-family="geogebra-sans-serif, sans-serif" font-size="12px" font-style="normal" font-weight="normal" text-decoration="normal" x="780" y="390" text-anchor="start" dominant-baseline="alphabetic" stroke-opacity="1" stroke-linejoin="bevel" stroke-miterlimit="10" stroke-width="3">6</text><text fill="rgb(0,0,0)" stroke="none" font-family="geogebra-sans-serif, sans-serif" font-size="12px" font-style="normal" font-weight="normal" text-decoration="normal" x="780" y="390" text-anchor="start" dominant-baseline="alphabetic" fill-opacity="1">6</text><text fill="none" stroke="rgb(255,255,255)" font-family="geogebra-sans-serif, sans-serif" font-size="12px" font-style="normal" font-weight="normal" text-decoration="normal" x="855" y="390" text-anchor="start" dominant-baseline="alphabetic" stroke-opacity="1" stroke-linejoin="bevel" stroke-miterlimit="10" stroke-width="3">7</text><text fill="rgb(0,0,0)" stroke="none" font-family="geogebra-sans-serif, sans-serif" font-size="12px" font-style="normal" font-weight="normal" text-decoration="normal" x="855" y="390" text-anchor="start" dominant-baseline="alphabetic" fill-opacity="1">7</text><text fill="none" stroke="rgb(255,255,255)" font-family="geogebra-sans-serif, sans-serif" font-size="12px" font-style="normal" font-weight="normal" text-decoration="normal" x="930" y="390" text-anchor="start" dominant-baseline="alphabetic" stroke-opacity="1" stroke-linejoin="bevel" stroke-miterlimit="10" stroke-width="3">8</text><text fill="rgb(0,0,0)" stroke="none" font-family="geogebra-sans-serif, sans-serif" font-size="12px" font-style="normal" font-weight="normal" text-decoration="normal" x="930" y="390" text-anchor="start" dominant-baseline="alphabetic" fill-opacity="1">8</text><text fill="none" stroke="rgb(255,255,255)" font-family="geogebra-sans-serif, sans-serif" font-size="12px" font-style="normal" font-weight="normal" text-decoration="normal" x="313" y="679" text-anchor="start" dominant-baseline="alphabetic" stroke-opacity="1" stroke-linejoin="bevel" stroke-miterlimit="10" stroke-width="3">–4</text><text fill="rgb(0,0,0)" stroke="none" font-family="geogebra-sans-serif, sans-serif" font-size="12px" font-style="normal" font-weight="normal" text-decoration="normal" x="313" y="679" text-anchor="start" dominant-baseline="alphabetic" fill-opacity="1">–4</text><text fill="none" stroke="rgb(255,255,255)" font-family="geogebra-sans-serif, sans-serif" font-size="12px" font-style="normal" font-weight="normal" text-decoration="normal" x="313" y="604" text-anchor="start" dominant-baseline="alphabetic" stroke-opacity="1" stroke-linejoin="bevel" stroke-miterlimit="10" stroke-width="3">–3</text><text fill="rgb(0,0,0)" stroke="none" font-family="geogebra-sans-serif, sans-serif" font-size="12px" font-style="normal" font-weight="normal" text-decoration="normal" x="313" y="604" text-anchor="start" dominant-baseline="alphabetic" fill-opacity="1">–3</text><text fill="none" stroke="rgb(255,255,255)" font-family="geogebra-sans-serif, sans-serif" font-size="12px" font-style="normal" font-weight="normal" text-decoration="normal" x="313" y="529" text-anchor="start" dominant-baseline="alphabetic" stroke-opacity="1" stroke-linejoin="bevel" stroke-miterlimit="10" stroke-width="3">–2</text><text fill="rgb(0,0,0)" stroke="none" font-family="geogebra-sans-serif, sans-serif" font-size="12px" font-style="normal" font-weight="normal" text-decoration="normal" x="313" y="529" text-anchor="start" dominant-baseline="alphabetic" fill-opacity="1">–2</text><text fill="none" stroke="rgb(255,255,255)" font-family="geogebra-sans-serif, sans-serif" font-size="12px" font-style="normal" font-weight="normal" text-decoration="normal" x="313" y="454" text-anchor="start" dominant-baseline="alphabetic" stroke-opacity="1" stroke-linejoin="bevel" stroke-miterlimit="10" stroke-width="3">–1</text><text fill="rgb(0,0,0)" stroke="none" font-family="geogebra-sans-serif, sans-serif" font-size="12px" font-style="normal" font-weight="normal" text-decoration="normal" x="313" y="454" text-anchor="start" dominant-baseline="alphabetic" fill-opacity="1">–1</text><text fill="none" stroke="rgb(255,255,255)" font-family="geogebra-sans-serif, sans-serif" font-size="12px" font-style="normal" font-weight="normal" text-decoration="normal" x="320" y="304" text-anchor="start" dominant-baseline="alphabetic" stroke-opacity="1" stroke-linejoin="bevel" stroke-miterlimit="10" stroke-width="3">1</text><text fill="rgb(0,0,0)" stroke="none" font-family="geogebra-sans-serif, sans-serif" font-size="12px" font-style="normal" font-weight="normal" text-decoration="normal" x="320" y="304" text-anchor="start" dominant-baseline="alphabetic" fill-opacity="1">1</text><text fill="none" stroke="rgb(255,255,255)" font-family="geogebra-sans-serif, sans-serif" font-size="12px" font-style="normal" font-weight="normal" text-decoration="normal" x="320" y="229" text-anchor="start" dominant-baseline="alphabetic" stroke-opacity="1" stroke-linejoin="bevel" stroke-miterlimit="10" stroke-width="3">2</text><text fill="rgb(0,0,0)" stroke="none" font-family="geogebra-sans-serif, sans-serif" font-size="12px" font-style="normal" font-weight="normal" text-decoration="normal" x="320" y="229" text-anchor="start" dominant-baseline="alphabetic" fill-opacity="1">2</text><text fill="none" stroke="rgb(255,255,255)" font-family="geogebra-sans-serif, sans-serif" font-size="12px" font-style="normal" font-weight="normal" text-decoration="normal" x="320" y="153" text-anchor="start" dominant-baseline="alphabetic" stroke-opacity="1" stroke-linejoin="bevel" stroke-miterlimit="10" stroke-width="3">3</text><text fill="rgb(0,0,0)" stroke="none" font-family="geogebra-sans-serif, sans-serif" font-size="12px" font-style="normal" font-weight="normal" text-decoration="normal" x="320" y="153" text-anchor="start" dominant-baseline="alphabetic" fill-opacity="1">3</text><text fill="none" stroke="rgb(255,255,255)" font-family="geogebra-sans-serif, sans-serif" font-size="12px" font-style="normal" font-weight="normal" text-decoration="normal" x="320" y="78" text-anchor="start" dominant-baseline="alphabetic" stroke-opacity="1" stroke-linejoin="bevel" stroke-miterlimit="10" stroke-width="3">4</text><text fill="rgb(0,0,0)" stroke="none" font-family="geogebra-sans-serif, sans-serif" font-size="12px" font-style="normal" font-weight="normal" text-decoration="normal" x="320" y="78" text-anchor="start" dominant-baseline="alphabetic" fill-opacity="1">4</text><text fill="none" stroke="rgb(255,255,255)" font-family="geogebra-sans-serif, sans-serif" font-size="12px" font-style="normal" font-weight="normal" text-decoration="normal" x="320" y="390" text-anchor="start" dominant-baseline="alphabetic" stroke-opacity="1" stroke-linejoin="bevel" stroke-miterlimit="10" stroke-width="3">0</text><text fill="rgb(0,0,0)" stroke="none" font-family="geogebra-sans-serif, sans-serif" font-size="12px" font-style="normal" font-weight="normal" text-decoration="normal" x="320" y="390" text-anchor="start" dominant-baseline="alphabetic" fill-opacity="1">0</text><path fill="none" stroke="rgb(0,0,0)" paint-order="fill stroke markers" d=" M 333.00000000000006 374 L 593.9999999999999 374" stroke-opacity="0.6980392156862745" stroke-linejoin="round" stroke-miterlimit="10" stroke-width="6.5" stroke-dasharray="14.5,8"/><path fill="rgb(0,0,0)" stroke="none" paint-order="stroke fill markers" fill-rule="evenodd" d=" M 632.9999999999999 374 L 593.9999999999999 383.75 L 593.9999999999999 364.25 Z" fill-opacity="0.6980392156862745"/><text fill="none" stroke="rgb(255,255,255)" font-family="geogebra-sans-serif, sans-serif" font-size="16px" font-style="normal" font-weight="normal" text-decoration="normal" x="483" y="364" text-anchor="start" dominant-baseline="alphabetic" stroke-opacity="1" stroke-linejoin="bevel" stroke-miterlimit="10" stroke-width="3" stroke-dasharray="14.5,8">(4, 0)</text><text fill="rgb(0,0,0)" stroke="none" font-family="geogebra-sans-serif, sans-serif" font-size="16px" font-style="normal" font-weight="normal" text-decoration="normal" x="483" y="364" text-anchor="start" dominant-baseline="alphabetic" fill-opacity="1">(4, 0)</text><path fill="none" stroke="rgb(0,0,0)" paint-order="fill stroke markers" d=" M 333.00000000000006 374 L 601.8 172.39999999999986" stroke-opacity="0.6980392156862745" stroke-linecap="round" stroke-linejoin="round" stroke-miterlimit="10" stroke-width="6.5"/><path fill="rgb(0,0,0)" stroke="none" paint-order="stroke fill markers" fill-rule="evenodd" d=" M 632.9999999999999 148.99999999999983 L 607.65 180.19999999999985 L 595.9499999999999 164.59999999999988 Z" fill-opacity="0.6980392156862745"/><text fill="none" stroke="rgb(255,255,255)" font-family="geogebra-sans-serif, sans-serif" font-size="16px" font-style="normal" font-weight="normal" text-decoration="normal" x="477" y="253" text-anchor="start" dominant-baseline="alphabetic" stroke-opacity="1" stroke-linecap="round" stroke-linejoin="bevel" stroke-miterlimit="10" stroke-width="3">v</text><text fill="rgb(0,0,0)" stroke="none" font-family="geogebra-sans-serif, sans-serif" font-size="16px" font-style="normal" font-weight="normal" text-decoration="normal" x="477" y="253" text-anchor="start" dominant-baseline="alphabetic" fill-opacity="1">v</text><path fill="none" stroke="rgb(0,0,0)" paint-order="fill stroke markers" d=" M 632.9999999999999 374 L 632.9999999999999 187.99999999999983" stroke-opacity="0.6980392156862745" stroke-linejoin="round" stroke-miterlimit="10" stroke-width="6.5" stroke-dasharray="14.5,8"/><path fill="rgb(0,0,0)" stroke="none" paint-order="stroke fill markers" fill-rule="evenodd" d=" M 632.9999999999999 148.99999999999983 L 642.7499999999999 187.99999999999983 L 623.2499999999999 187.99999999999983 Z" fill-opacity="0.6980392156862745"/><text fill="none" stroke="rgb(255,255,255)" font-family="geogebra-sans-serif, sans-serif" font-size="16px" font-style="normal" font-weight="normal" text-decoration="normal" x="623" y="261" text-anchor="start" dominant-baseline="alphabetic" stroke-opacity="1" stroke-linejoin="bevel" stroke-miterlimit="10" stroke-width="3" stroke-dasharray="14.5,8">(0, 3)</text><text fill="rgb(0,0,0)" stroke="none" font-family="geogebra-sans-serif, sans-serif" font-size="16px" font-style="normal" font-weight="normal" text-decoration="normal" x="623" y="261" text-anchor="start" dominant-baseline="alphabetic" fill-opacity="1">(0, 3)</text><path fill="rgb(21,101,192)" stroke="none" paint-order="stroke fill markers" d=" M 338.00000000000006 374 C 338.00000000000006 376.76142374915395 335.761423749154 379 333.00000000000006 379 C 330.2385762508461 379 328.00000000000006 376.76142374915395 328.00000000000006 374 C 328.00000000000006 371.23857625084605 330.2385762508461 369 333.00000000000006 369 C 335.761423749154 369 338.00000000000006 371.23857625084605 338.00000000000006 374 Z" fill-opacity="1"/><path fill="none" stroke="rgb(0,0,0)" paint-order="fill stroke markers" d=" M 338.00000000000006 374 C 338.00000000000006 376.76142374915395 335.761423749154 379 333.00000000000006 379 C 330.2385762508461 379 328.00000000000006 376.76142374915395 328.00000000000006 374 C 328.00000000000006 371.23857625084605 330.2385762508461 369 333.00000000000006 369 C 335.761423749154 369 338.00000000000006 371.23857625084605 338.00000000000006 374 Z" stroke-opacity="1" stroke-linecap="round" stroke-linejoin="round" stroke-miterlimit="10"/><text fill="none" stroke="rgb(255,255,255)" font-family="geogebra-sans-serif, sans-serif" font-size="16px" font-style="normal" font-weight="normal" text-decoration="normal" x="337" y="364" text-anchor="start" dominant-baseline="alphabetic" stroke-opacity="1" stroke-linecap="round" stroke-linejoin="bevel" stroke-miterlimit="10" stroke-width="3">A</text><text fill="rgb(21,101,192)" stroke="none" font-family="geogebra-sans-serif, sans-serif" font-size="16px" font-style="normal" font-weight="normal" text-decoration="normal" x="337" y="364" text-anchor="start" dominant-baseline="alphabetic" fill-opacity="1">A</text><path fill="rgb(21,101,192)" stroke="none" paint-order="stroke fill markers" d=" M 637.9999999999999 374 C 637.9999999999999 376.76142374915395 635.7614237491539 379 632.9999999999999 379 C 630.2385762508459 379 627.9999999999999 376.76142374915395 627.9999999999999 374 C 627.9999999999999 371.23857625084605 630.2385762508459 369 632.9999999999999 369 C 635.7614237491539 369 637.9999999999999 371.23857625084605 637.9999999999999 374 Z" fill-opacity="1"/><path fill="none" stroke="rgb(0,0,0)" paint-order="fill stroke markers" d=" M 637.9999999999999 374 C 637.9999999999999 376.76142374915395 635.7614237491539 379 632.9999999999999 379 C 630.2385762508459 379 627.9999999999999 376.76142374915395 627.9999999999999 374 C 627.9999999999999 371.23857625084605 630.2385762508459 369 632.9999999999999 369 C 635.7614237491539 369 637.9999999999999 371.23857625084605 637.9999999999999 374 Z" stroke-opacity="1" stroke-linecap="round" stroke-linejoin="round" stroke-miterlimit="10"/><text fill="none" stroke="rgb(255,255,255)" font-family="geogebra-sans-serif, sans-serif" font-size="16px" font-style="normal" font-weight="normal" text-decoration="normal" x="637" y="364" text-anchor="start" dominant-baseline="alphabetic" stroke-opacity="1" stroke-linecap="round" stroke-linejoin="bevel" stroke-miterlimit="10" stroke-width="3">B</text><text fill="rgb(21,101,192)" stroke="none" font-family="geogebra-sans-serif, sans-serif" font-size="16px" font-style="normal" font-weight="normal" text-decoration="normal" x="637" y="364" text-anchor="start" dominant-baseline="alphabetic" fill-opacity="1">B</text><path fill="rgb(21,101,192)" stroke="none" paint-order="stroke fill markers" d=" M 637.9999999999999 148.99999999999983 C 637.9999999999999 151.7614237491538 635.7614237491539 153.99999999999983 632.9999999999999 153.99999999999983 C 630.2385762508459 153.99999999999983 627.9999999999999 151.7614237491538 627.9999999999999 148.99999999999983 C 627.9999999999999 146.23857625084585 630.2385762508459 143.99999999999983 632.9999999999999 143.99999999999983 C 635.7614237491539 143.99999999999983 637.9999999999999 146.23857625084585 637.9999999999999 148.99999999999983 Z" fill-opacity="1"/><path fill="none" stroke="rgb(0,0,0)" paint-order="fill stroke markers" d=" M 637.9999999999999 148.99999999999983 C 637.9999999999999 151.7614237491538 635.7614237491539 153.99999999999983 632.9999999999999 153.99999999999983 C 630.2385762508459 153.99999999999983 627.9999999999999 151.7614237491538 627.9999999999999 148.99999999999983 C 627.9999999999999 146.23857625084585 630.2385762508459 143.99999999999983 632.9999999999999 143.99999999999983 C 635.7614237491539 143.99999999999983 637.9999999999999 146.23857625084585 637.9999999999999 148.99999999999983 Z" stroke-opacity="1" stroke-linecap="round" stroke-linejoin="round" stroke-miterlimit="10"/><text fill="none" stroke="rgb(255,255,255)" font-family="geogebra-sans-serif, sans-serif" font-size="16px" font-style="normal" font-weight="normal" text-decoration="normal" x="637" y="139" text-anchor="start" dominant-baseline="alphabetic" stroke-opacity="1" stroke-linecap="round" stroke-linejoin="bevel" stroke-miterlimit="10" stroke-width="3">C</text><text fill="rgb(21,101,192)" stroke="none" font-family="geogebra-sans-serif, sans-serif" font-size="16px" font-style="normal" font-weight="normal" text-decoration="normal" x="637" y="139" text-anchor="start" dominant-baseline="alphabetic" fill-opacity="1">C</text></g></g></svg>