<svg version="1.1" xmlns="http://www.w3.org/2000/svg" xmlns:xlink="http://www.w3.org/1999/xlink" width="984" height="672"><defs><clipPath id="wGpJBtwFDgDK"><path fill="none" stroke="none" d=" M 0 0 L 984 0 L 984 672 L 0 672 L 0 0 Z"/></clipPath></defs><g transform="scale(1,1)" clip-path="url(#wGpJBtwFDgDK)"><g><rect fill="rgb(255,255,255)" stroke="none" x="0" y="0" width="984" height="672" fill-opacity="1"/><path fill="none" stroke="rgb(192,192,192)" paint-order="fill stroke markers" d=" M 73.5 0.5 L 73.5 672.5 M 73.5 0.5 L 73.5 672.5 M 155.5 0.5 L 155.5 672.5 M 237.5 0.5 L 237.5 672.5 M 402.5 0.5 L 402.5 672.5 M 485.5 0.5 L 485.5 672.5 M 567.5 0.5 L 567.5 672.5 M 649.5 0.5 L 649.5 672.5 M 732.5 0.5 L 732.5 672.5 M 814.5 0.5 L 814.5 672.5 M 896.5 0.5 L 896.5 672.5 M 979.5 0.5 L 979.5 672.5" stroke-opacity="1" stroke-linecap="round" stroke-linejoin="round" stroke-miterlimit="10"/><path fill="none" stroke="rgb(192,192,192)" paint-order="fill stroke markers" d=" M 7.5 0.5 L 7.5 672.5 M 23.5 0.5 L 23.5 672.5 M 40.5 0.5 L 40.5 672.5 M 56.5 0.5 L 56.5 672.5 M 89.5 0.5 L 89.5 672.5 M 106.5 0.5 L 106.5 672.5 M 122.5 0.5 L 122.5 672.5 M 139.5 0.5 L 139.5 672.5 M 172.5 0.5 L 172.5 672.5 M 188.5 0.5 L 188.5 672.5 M 205.5 0.5 L 205.5 672.5 M 221.5 0.5 L 221.5 672.5 M 254.5 0.5 L 254.5 672.5 M 270.5 0.5 L 270.5 672.5 M 287.5 0.5 L 287.5 672.5 M 303.5 0.5 L 303.5 672.5 M 336.5 0.5 L 336.5 672.5 M 353.5 0.5 L 353.5 672.5 M 369.5 0.5 L 369.5 672.5 M 386.5 0.5 L 386.5 672.5 M 419.5 0.5 L 419.5 672.5 M 435.5 0.5 L 435.5 672.5 M 452.5 0.5 L 452.5 672.5 M 468.5 0.5 L 468.5 672.5 M 501.5 0.5 L 501.5 672.5 M 517.5 0.5 L 517.5 672.5 M 534.5 0.5 L 534.5 672.5 M 550.5 0.5 L 550.5 672.5 M 583.5 0.5 L 583.5 672.5 M 600.5 0.5 L 600.5 672.5 M 616.5 0.5 L 616.5 672.5 M 633.5 0.5 L 633.5 672.5 M 666.5 0.5 L 666.5 672.5 M 682.5 0.5 L 682.5 672.5 M 699.5 0.5 L 699.5 672.5 M 715.5 0.5 L 715.5 672.5 M 748.5 0.5 L 748.5 672.5 M 765.5 0.5 L 765.5 672.5 M 781.5 0.5 L 781.5 672.5 M 797.5 0.5 L 797.5 672.5 M 830.5 0.5 L 830.5 672.5 M 847.5 0.5 L 847.5 672.5 M 863.5 0.5 L 863.5 672.5 M 880.5 0.5 L 880.5 672.5 M 913.5 0.5 L 913.5 672.5 M 929.5 0.5 L 929.5 672.5 M 946.5 0.5 L 946.5 672.5 M 962.5 0.5 L 962.5 672.5" stroke-opacity="0.23529411764705882" stroke-linecap="round" stroke-linejoin="round" stroke-miterlimit="10"/><path fill="none" stroke="rgb(192,192,192)" paint-order="fill stroke markers" d=" M 0.5 25.5 L 984.5 25.5 M 0.5 25.5 L 984.5 25.5 M 0.5 108.5 L 984.5 108.5 M 0.5 190.5 L 984.5 190.5 M 0.5 272.5 L 984.5 272.5 M 0.5 437.5 L 984.5 437.5 M 0.5 519.5 L 984.5 519.5 M 0.5 602.5 L 984.5 602.5" stroke-opacity="1" stroke-linecap="round" stroke-linejoin="round" stroke-miterlimit="10"/><path fill="none" stroke="rgb(192,192,192)" paint-order="fill stroke markers" d=" M 0.5 9.5 L 984.5 9.5 M 0.5 9.5 L 984.5 9.5 M 0.5 42.5 L 984.5 42.5 M 0.5 58.5 L 984.5 58.5 M 0.5 75.5 L 984.5 75.5 M 0.5 91.5 L 984.5 91.5 M 0.5 124.5 L 984.5 124.5 M 0.5 141.5 L 984.5 141.5 M 0.5 157.5 L 984.5 157.5 M 0.5 174.5 L 984.5 174.5 M 0.5 207.5 L 984.5 207.5 M 0.5 223.5 L 984.5 223.5 M 0.5 239.5 L 984.5 239.5 M 0.5 256.5 L 984.5 256.5 M 0.5 289.5 L 984.5 289.5 M 0.5 305.5 L 984.5 305.5 M 0.5 322.5 L 984.5 322.5 M 0.5 338.5 L 984.5 338.5 M 0.5 371.5 L 984.5 371.5 M 0.5 388.5 L 984.5 388.5 M 0.5 404.5 L 984.5 404.5 M 0.5 421.5 L 984.5 421.5 M 0.5 454.5 L 984.5 454.5 M 0.5 470.5 L 984.5 470.5 M 0.5 487.5 L 984.5 487.5 M 0.5 503.5 L 984.5 503.5 M 0.5 536.5 L 984.5 536.5 M 0.5 552.5 L 984.5 552.5 M 0.5 569.5 L 984.5 569.5 M 0.5 585.5 L 984.5 585.5 M 0.5 618.5 L 984.5 618.5 M 0.5 635.5 L 984.5 635.5 M 0.5 651.5 L 984.5 651.5 M 0.5 668.5 L 984.5 668.5" stroke-opacity="0.23529411764705882" stroke-linecap="round" stroke-linejoin="round" stroke-miterlimit="10"/><path fill="none" stroke="rgb(0,0,0)" paint-order="fill stroke markers" d=" M 320.5 2.5 L 320.5 672.5" stroke-opacity="1" stroke-miterlimit="10"/><path fill="none" stroke="rgb(0,0,0)" paint-order="fill stroke markers" d=" M 320.5 1.5 L 316.5 5.5" stroke-opacity="1" stroke-miterlimit="10"/><path fill="none" stroke="rgb(0,0,0)" paint-order="fill stroke markers" d=" M 320.5 1.5 L 324.5 5.5" stroke-opacity="1" stroke-miterlimit="10"/><path fill="none" stroke="rgb(0,0,0)" paint-order="fill stroke markers" d=" M 0.5 355.5 L 982.5 355.5" stroke-opacity="1" stroke-miterlimit="10"/><path fill="none" stroke="rgb(0,0,0)" paint-order="fill stroke markers" d=" M 983.5 355.5 L 979.5 351.5" stroke-opacity="1" stroke-miterlimit="10"/><path fill="none" stroke="rgb(0,0,0)" paint-order="fill stroke markers" d=" M 983.5 355.5 L 979.5 359.5" stroke-opacity="1" stroke-miterlimit="10"/><text fill="none" stroke="rgb(255,255,255)" font-family="geogebra-sans-serif, sans-serif" font-size="12px" font-style="normal" font-weight="normal" text-decoration="normal" x="62" y="371" text-anchor="start" dominant-baseline="alphabetic" stroke-opacity="1" stroke-linejoin="bevel" stroke-miterlimit="10" stroke-width="3">–1.5</text><text fill="rgb(0,0,0)" stroke="none" font-family="geogebra-sans-serif, sans-serif" font-size="12px" font-style="normal" font-weight="normal" text-decoration="normal" x="62" y="371" text-anchor="start" dominant-baseline="alphabetic" fill-opacity="1">–1.5</text><text fill="none" stroke="rgb(255,255,255)" font-family="geogebra-sans-serif, sans-serif" font-size="12px" font-style="normal" font-weight="normal" text-decoration="normal" x="150" y="371" text-anchor="start" dominant-baseline="alphabetic" stroke-opacity="1" stroke-linejoin="bevel" stroke-miterlimit="10" stroke-width="3">–1</text><text fill="rgb(0,0,0)" stroke="none" font-family="geogebra-sans-serif, sans-serif" font-size="12px" font-style="normal" font-weight="normal" text-decoration="normal" x="150" y="371" text-anchor="start" dominant-baseline="alphabetic" fill-opacity="1">–1</text><text fill="none" stroke="rgb(255,255,255)" font-family="geogebra-sans-serif, sans-serif" font-size="12px" font-style="normal" font-weight="normal" text-decoration="normal" x="226" y="371" text-anchor="start" dominant-baseline="alphabetic" stroke-opacity="1" stroke-linejoin="bevel" stroke-miterlimit="10" stroke-width="3">–0.5</text><text fill="rgb(0,0,0)" stroke="none" font-family="geogebra-sans-serif, sans-serif" font-size="12px" font-style="normal" font-weight="normal" text-decoration="normal" x="226" y="371" text-anchor="start" dominant-baseline="alphabetic" fill-opacity="1">–0.5</text><text fill="none" stroke="rgb(255,255,255)" font-family="geogebra-sans-serif, sans-serif" font-size="12px" font-style="normal" font-weight="normal" text-decoration="normal" x="394" y="371" text-anchor="start" dominant-baseline="alphabetic" stroke-opacity="1" stroke-linejoin="bevel" stroke-miterlimit="10" stroke-width="3">0.5</text><text fill="rgb(0,0,0)" stroke="none" font-family="geogebra-sans-serif, sans-serif" font-size="12px" font-style="normal" font-weight="normal" text-decoration="normal" x="394" y="371" text-anchor="start" dominant-baseline="alphabetic" fill-opacity="1">0.5</text><text fill="none" stroke="rgb(255,255,255)" font-family="geogebra-sans-serif, sans-serif" font-size="12px" font-style="normal" font-weight="normal" text-decoration="normal" x="483" y="371" text-anchor="start" dominant-baseline="alphabetic" stroke-opacity="1" stroke-linejoin="bevel" stroke-miterlimit="10" stroke-width="3">1</text><text fill="rgb(0,0,0)" stroke="none" font-family="geogebra-sans-serif, sans-serif" font-size="12px" font-style="normal" font-weight="normal" text-decoration="normal" x="483" y="371" text-anchor="start" dominant-baseline="alphabetic" fill-opacity="1">1</text><text fill="none" stroke="rgb(255,255,255)" font-family="geogebra-sans-serif, sans-serif" font-size="12px" font-style="normal" font-weight="normal" text-decoration="normal" x="559" y="371" text-anchor="start" dominant-baseline="alphabetic" stroke-opacity="1" stroke-linejoin="bevel" stroke-miterlimit="10" stroke-width="3">1.5</text><text fill="rgb(0,0,0)" stroke="none" font-family="geogebra-sans-serif, sans-serif" font-size="12px" font-style="normal" font-weight="normal" text-decoration="normal" x="559" y="371" text-anchor="start" dominant-baseline="alphabetic" fill-opacity="1">1.5</text><text fill="none" stroke="rgb(255,255,255)" font-family="geogebra-sans-serif, sans-serif" font-size="12px" font-style="normal" font-weight="normal" text-decoration="normal" x="647" y="371" text-anchor="start" dominant-baseline="alphabetic" stroke-opacity="1" stroke-linejoin="bevel" stroke-miterlimit="10" stroke-width="3">2</text><text fill="rgb(0,0,0)" stroke="none" font-family="geogebra-sans-serif, sans-serif" font-size="12px" font-style="normal" font-weight="normal" text-decoration="normal" x="647" y="371" text-anchor="start" dominant-baseline="alphabetic" fill-opacity="1">2</text><text fill="none" stroke="rgb(255,255,255)" font-family="geogebra-sans-serif, sans-serif" font-size="12px" font-style="normal" font-weight="normal" text-decoration="normal" x="724" y="371" text-anchor="start" dominant-baseline="alphabetic" stroke-opacity="1" stroke-linejoin="bevel" stroke-miterlimit="10" stroke-width="3">2.5</text><text fill="rgb(0,0,0)" stroke="none" font-family="geogebra-sans-serif, sans-serif" font-size="12px" font-style="normal" font-weight="normal" text-decoration="normal" x="724" y="371" text-anchor="start" dominant-baseline="alphabetic" fill-opacity="1">2.5</text><text fill="none" stroke="rgb(255,255,255)" font-family="geogebra-sans-serif, sans-serif" font-size="12px" font-style="normal" font-weight="normal" text-decoration="normal" x="812" y="371" text-anchor="start" dominant-baseline="alphabetic" stroke-opacity="1" stroke-linejoin="bevel" stroke-miterlimit="10" stroke-width="3">3</text><text fill="rgb(0,0,0)" stroke="none" font-family="geogebra-sans-serif, sans-serif" font-size="12px" font-style="normal" font-weight="normal" text-decoration="normal" x="812" y="371" text-anchor="start" dominant-baseline="alphabetic" fill-opacity="1">3</text><text fill="none" stroke="rgb(255,255,255)" font-family="geogebra-sans-serif, sans-serif" font-size="12px" font-style="normal" font-weight="normal" text-decoration="normal" x="888" y="371" text-anchor="start" dominant-baseline="alphabetic" stroke-opacity="1" stroke-linejoin="bevel" stroke-miterlimit="10" stroke-width="3">3.5</text><text fill="rgb(0,0,0)" stroke="none" font-family="geogebra-sans-serif, sans-serif" font-size="12px" font-style="normal" font-weight="normal" text-decoration="normal" x="888" y="371" text-anchor="start" dominant-baseline="alphabetic" fill-opacity="1">3.5</text><text fill="none" stroke="rgb(255,255,255)" font-family="geogebra-sans-serif, sans-serif" font-size="12px" font-style="normal" font-weight="normal" text-decoration="normal" x="290" y="607" text-anchor="start" dominant-baseline="alphabetic" stroke-opacity="1" stroke-linejoin="bevel" stroke-miterlimit="10" stroke-width="3">–1.5</text><text fill="rgb(0,0,0)" stroke="none" font-family="geogebra-sans-serif, sans-serif" font-size="12px" font-style="normal" font-weight="normal" text-decoration="normal" x="290" y="607" text-anchor="start" dominant-baseline="alphabetic" fill-opacity="1">–1.5</text><text fill="none" stroke="rgb(255,255,255)" font-family="geogebra-sans-serif, sans-serif" font-size="12px" font-style="normal" font-weight="normal" text-decoration="normal" x="300" y="524" text-anchor="start" dominant-baseline="alphabetic" stroke-opacity="1" stroke-linejoin="bevel" stroke-miterlimit="10" stroke-width="3">–1</text><text fill="rgb(0,0,0)" stroke="none" font-family="geogebra-sans-serif, sans-serif" font-size="12px" font-style="normal" font-weight="normal" text-decoration="normal" x="300" y="524" text-anchor="start" dominant-baseline="alphabetic" fill-opacity="1">–1</text><text fill="none" stroke="rgb(255,255,255)" font-family="geogebra-sans-serif, sans-serif" font-size="12px" font-style="normal" font-weight="normal" text-decoration="normal" x="290" y="442" text-anchor="start" dominant-baseline="alphabetic" stroke-opacity="1" stroke-linejoin="bevel" stroke-miterlimit="10" stroke-width="3">–0.5</text><text fill="rgb(0,0,0)" stroke="none" font-family="geogebra-sans-serif, sans-serif" font-size="12px" font-style="normal" font-weight="normal" text-decoration="normal" x="290" y="442" text-anchor="start" dominant-baseline="alphabetic" fill-opacity="1">–0.5</text><text fill="none" stroke="rgb(255,255,255)" font-family="geogebra-sans-serif, sans-serif" font-size="12px" font-style="normal" font-weight="normal" text-decoration="normal" x="297" y="277" text-anchor="start" dominant-baseline="alphabetic" stroke-opacity="1" stroke-linejoin="bevel" stroke-miterlimit="10" stroke-width="3">0.5</text><text fill="rgb(0,0,0)" stroke="none" font-family="geogebra-sans-serif, sans-serif" font-size="12px" font-style="normal" font-weight="normal" text-decoration="normal" x="297" y="277" text-anchor="start" dominant-baseline="alphabetic" fill-opacity="1">0.5</text><text fill="none" stroke="rgb(255,255,255)" font-family="geogebra-sans-serif, sans-serif" font-size="12px" font-style="normal" font-weight="normal" text-decoration="normal" x="307" y="195" text-anchor="start" dominant-baseline="alphabetic" stroke-opacity="1" stroke-linejoin="bevel" stroke-miterlimit="10" stroke-width="3">1</text><text fill="rgb(0,0,0)" stroke="none" font-family="geogebra-sans-serif, sans-serif" font-size="12px" font-style="normal" font-weight="normal" text-decoration="normal" x="307" y="195" text-anchor="start" dominant-baseline="alphabetic" fill-opacity="1">1</text><text fill="none" stroke="rgb(255,255,255)" font-family="geogebra-sans-serif, sans-serif" font-size="12px" font-style="normal" font-weight="normal" text-decoration="normal" x="297" y="113" text-anchor="start" dominant-baseline="alphabetic" stroke-opacity="1" stroke-linejoin="bevel" stroke-miterlimit="10" stroke-width="3">1.5</text><text fill="rgb(0,0,0)" stroke="none" font-family="geogebra-sans-serif, sans-serif" font-size="12px" font-style="normal" font-weight="normal" text-decoration="normal" x="297" y="113" text-anchor="start" dominant-baseline="alphabetic" fill-opacity="1">1.5</text><text fill="none" stroke="rgb(255,255,255)" font-family="geogebra-sans-serif, sans-serif" font-size="12px" font-style="normal" font-weight="normal" text-decoration="normal" x="307" y="30" text-anchor="start" dominant-baseline="alphabetic" stroke-opacity="1" stroke-linejoin="bevel" stroke-miterlimit="10" stroke-width="3">2</text><text fill="rgb(0,0,0)" stroke="none" font-family="geogebra-sans-serif, sans-serif" font-size="12px" font-style="normal" font-weight="normal" text-decoration="normal" x="307" y="30" text-anchor="start" dominant-baseline="alphabetic" fill-opacity="1">2</text><text fill="none" stroke="rgb(255,255,255)" font-family="geogebra-sans-serif, sans-serif" font-size="12px" font-style="normal" font-weight="normal" text-decoration="normal" x="307" y="371" text-anchor="start" dominant-baseline="alphabetic" stroke-opacity="1" stroke-linejoin="bevel" stroke-miterlimit="10" stroke-width="3">0</text><text fill="rgb(0,0,0)" stroke="none" font-family="geogebra-sans-serif, sans-serif" font-size="12px" font-style="normal" font-weight="normal" text-decoration="normal" x="307" y="371" text-anchor="start" dominant-baseline="alphabetic" fill-opacity="1">0</text><path fill="none" stroke="rgb(0,0,0)" paint-order="fill stroke markers" d=" M 320.3152250000005 355.2407124999989 L 610.7377250000006 355.2407124999989" stroke-opacity="0.6980392156862745" stroke-linecap="round" stroke-linejoin="round" stroke-miterlimit="10" stroke-width="6.5"/><path fill="rgb(0,0,0)" stroke="none" paint-order="stroke fill markers" fill-rule="evenodd" d=" M 649.7377250000006 355.2407124999989 L 610.7377250000006 364.9907124999989 L 610.7377250000006 345.4907124999989 Z" fill-opacity="0.6980392156862745"/><path fill="none" stroke="rgb(0,0,0)" paint-order="fill stroke markers" d=" M 320.3152250000005 355.2407124999989 L 457.4493105337252 218.1066269662744" stroke-opacity="0.6980392156862745" stroke-linecap="round" stroke-linejoin="round" stroke-miterlimit="10" stroke-width="6.5"/><path fill="rgb(0,0,0)" stroke="none" paint-order="stroke fill markers" fill-rule="evenodd" d=" M 485.0264750000006 190.52946249999908 L 464.34360165029403 225.00091808284324 L 450.5550194171564 211.21233584970557 Z" fill-opacity="0.6980392156862745"/><path fill="none" stroke="rgb(0,0,0)" paint-order="fill stroke markers" d=" M 485.0264750000006 190.52946249999908 L 775.4489750000008 190.52946249999908" stroke-opacity="0.6980392156862745" stroke-linejoin="round" stroke-miterlimit="10" stroke-width="6.5" stroke-dasharray="14.5,8"/><path fill="rgb(0,0,0)" stroke="none" paint-order="stroke fill markers" fill-rule="evenodd" d=" M 814.4489750000008 190.52946249999908 L 775.4489750000008 200.27946249999908 L 775.4489750000008 180.77946249999908 Z" fill-opacity="0.6980392156862745"/><path fill="none" stroke="rgb(0,0,0)" paint-order="fill stroke markers" d=" M 649.7377250000006 355.2407124999989 L 786.8718105337255 218.1066269662744" stroke-opacity="0.6980392156862745" stroke-linejoin="round" stroke-miterlimit="10" stroke-width="6.5" stroke-dasharray="14.5,8"/><path fill="rgb(0,0,0)" stroke="none" paint-order="stroke fill markers" fill-rule="evenodd" d=" M 814.4489750000008 190.52946249999908 L 793.7661016502943 225.00091808284324 L 779.9775194171566 211.21233584970557 Z" fill-opacity="0.6980392156862745"/><path fill="rgb(21,101,192)" stroke="none" paint-order="stroke fill markers" d=" M 325.3152250000005 355.2407124999989 C 325.3152250000005 358.00213624915284 323.07664874915446 360.2407124999989 320.3152250000005 360.2407124999989 C 317.55380125084656 360.2407124999989 315.3152250000005 358.00213624915284 315.3152250000005 355.2407124999989 C 315.3152250000005 352.47928875084494 317.55380125084656 350.2407124999989 320.3152250000005 350.2407124999989 C 323.07664874915446 350.2407124999989 325.3152250000005 352.47928875084494 325.3152250000005 355.2407124999989 Z" fill-opacity="1"/><path fill="none" stroke="rgb(0,0,0)" paint-order="fill stroke markers" d=" M 325.3152250000005 355.2407124999989 C 325.3152250000005 358.00213624915284 323.07664874915446 360.2407124999989 320.3152250000005 360.2407124999989 C 317.55380125084656 360.2407124999989 315.3152250000005 358.00213624915284 315.3152250000005 355.2407124999989 C 315.3152250000005 352.47928875084494 317.55380125084656 350.2407124999989 320.3152250000005 350.2407124999989 C 323.07664874915446 350.2407124999989 325.3152250000005 352.47928875084494 325.3152250000005 355.2407124999989 Z" stroke-opacity="1" stroke-linecap="round" stroke-linejoin="round" stroke-miterlimit="10"/><text fill="none" stroke="rgb(255,255,255)" font-family="geogebra-sans-serif, sans-serif" font-size="16px" font-style="normal" font-weight="normal" text-decoration="normal" x="324" y="345" text-anchor="start" dominant-baseline="alphabetic" stroke-opacity="1" stroke-linecap="round" stroke-linejoin="bevel" stroke-miterlimit="10" stroke-width="3">A</text><text fill="rgb(21,101,192)" stroke="none" font-family="geogebra-sans-serif, sans-serif" font-size="16px" font-style="normal" font-weight="normal" text-decoration="normal" x="324" y="345" text-anchor="start" dominant-baseline="alphabetic" fill-opacity="1">A</text><path fill="rgb(21,101,192)" stroke="none" paint-order="stroke fill markers" d=" M 654.7377250000006 355.2407124999989 C 654.7377250000006 358.00213624915284 652.4991487491546 360.2407124999989 649.7377250000006 360.2407124999989 C 646.9763012508466 360.2407124999989 644.7377250000006 358.00213624915284 644.7377250000006 355.2407124999989 C 644.7377250000006 352.47928875084494 646.9763012508466 350.2407124999989 649.7377250000006 350.2407124999989 C 652.4991487491546 350.2407124999989 654.7377250000006 352.47928875084494 654.7377250000006 355.2407124999989 Z" fill-opacity="1"/><path fill="none" stroke="rgb(0,0,0)" paint-order="fill stroke markers" d=" M 654.7377250000006 355.2407124999989 C 654.7377250000006 358.00213624915284 652.4991487491546 360.2407124999989 649.7377250000006 360.2407124999989 C 646.9763012508466 360.2407124999989 644.7377250000006 358.00213624915284 644.7377250000006 355.2407124999989 C 644.7377250000006 352.47928875084494 646.9763012508466 350.2407124999989 649.7377250000006 350.2407124999989 C 652.4991487491546 350.2407124999989 654.7377250000006 352.47928875084494 654.7377250000006 355.2407124999989 Z" stroke-opacity="1" stroke-linecap="round" stroke-linejoin="round" stroke-miterlimit="10"/><text fill="none" stroke="rgb(255,255,255)" font-family="geogebra-sans-serif, sans-serif" font-size="16px" font-style="normal" font-weight="normal" text-decoration="normal" x="654" y="345" text-anchor="start" dominant-baseline="alphabetic" stroke-opacity="1" stroke-linecap="round" stroke-linejoin="bevel" stroke-miterlimit="10" stroke-width="3">B</text><text fill="rgb(21,101,192)" stroke="none" font-family="geogebra-sans-serif, sans-serif" font-size="16px" font-style="normal" font-weight="normal" text-decoration="normal" x="654" y="345" text-anchor="start" dominant-baseline="alphabetic" fill-opacity="1">B</text><path fill="rgb(21,101,192)" stroke="none" paint-order="stroke fill markers" d=" M 490.0264750000006 190.52946249999908 C 490.0264750000006 193.29088624915306 487.7878987491545 195.52946249999908 485.0264750000006 195.52946249999908 C 482.2650512508466 195.52946249999908 480.0264750000006 193.29088624915306 480.0264750000006 190.52946249999908 C 480.0264750000006 187.7680387508451 482.2650512508466 185.52946249999908 485.0264750000006 185.52946249999908 C 487.7878987491545 185.52946249999908 490.0264750000006 187.7680387508451 490.0264750000006 190.52946249999908 Z" fill-opacity="1"/><path fill="none" stroke="rgb(0,0,0)" paint-order="fill stroke markers" d=" M 490.0264750000006 190.52946249999908 C 490.0264750000006 193.29088624915306 487.7878987491545 195.52946249999908 485.0264750000006 195.52946249999908 C 482.2650512508466 195.52946249999908 480.0264750000006 193.29088624915306 480.0264750000006 190.52946249999908 C 480.0264750000006 187.7680387508451 482.2650512508466 185.52946249999908 485.0264750000006 185.52946249999908 C 487.7878987491545 185.52946249999908 490.0264750000006 187.7680387508451 490.0264750000006 190.52946249999908 Z" stroke-opacity="1" stroke-linecap="round" stroke-linejoin="round" stroke-miterlimit="10"/><text fill="none" stroke="rgb(255,255,255)" font-family="geogebra-sans-serif, sans-serif" font-size="16px" font-style="normal" font-weight="normal" text-decoration="normal" x="489" y="181" text-anchor="start" dominant-baseline="alphabetic" stroke-opacity="1" stroke-linecap="round" stroke-linejoin="bevel" stroke-miterlimit="10" stroke-width="3">C</text><text fill="rgb(21,101,192)" stroke="none" font-family="geogebra-sans-serif, sans-serif" font-size="16px" font-style="normal" font-weight="normal" text-decoration="normal" x="489" y="181" text-anchor="start" dominant-baseline="alphabetic" fill-opacity="1">C</text><path fill="rgb(21,101,192)" stroke="none" paint-order="stroke fill markers" d=" M 819.4489750000008 190.52946249999908 C 819.4489750000008 193.29088624915306 817.2103987491548 195.52946249999908 814.4489750000008 195.52946249999908 C 811.6875512508468 195.52946249999908 809.4489750000008 193.29088624915306 809.4489750000008 190.52946249999908 C 809.4489750000008 187.7680387508451 811.6875512508468 185.52946249999908 814.4489750000008 185.52946249999908 C 817.2103987491548 185.52946249999908 819.4489750000008 187.7680387508451 819.4489750000008 190.52946249999908 Z" fill-opacity="1"/><path fill="none" stroke="rgb(0,0,0)" paint-order="fill stroke markers" d=" M 819.4489750000008 190.52946249999908 C 819.4489750000008 193.29088624915306 817.2103987491548 195.52946249999908 814.4489750000008 195.52946249999908 C 811.6875512508468 195.52946249999908 809.4489750000008 193.29088624915306 809.4489750000008 190.52946249999908 C 809.4489750000008 187.7680387508451 811.6875512508468 185.52946249999908 814.4489750000008 185.52946249999908 C 817.2103987491548 185.52946249999908 819.4489750000008 187.7680387508451 819.4489750000008 190.52946249999908 Z" stroke-opacity="1" stroke-linecap="round" stroke-linejoin="round" stroke-miterlimit="10"/><text fill="none" stroke="rgb(255,255,255)" font-family="geogebra-sans-serif, sans-serif" font-size="16px" font-style="normal" font-weight="normal" text-decoration="normal" x="818" y="181" text-anchor="start" dominant-baseline="alphabetic" stroke-opacity="1" stroke-linecap="round" stroke-linejoin="bevel" stroke-miterlimit="10" stroke-width="3">D</text><text fill="rgb(21,101,192)" stroke="none" font-family="geogebra-sans-serif, sans-serif" font-size="16px" font-style="normal" font-weight="normal" text-decoration="normal" x="818" y="181" text-anchor="start" dominant-baseline="alphabetic" fill-opacity="1">D</text><g transform="scale(25,25)"><g transform="translate(14.96,13.614445)"><path fill="rgb(0,0,0)" stroke="none" paint-order="stroke fill markers" d=" M 0.547 -0.49 Q 0.547 -0.419 0.52 -0.3175 Q 0.493 -0.216 0.436 -0.133 Q 0.388 -0.061 0.3275 -0.0265 Q 0.267 0.008 0.212 0.008 Q 0.14 0.008 0.093 -0.0455 Q 0.046 -0.099 0.046 -0.203 Q 0.046 -0.267 0.0685 -0.3565 Q 0.091 -0.446 0.128 -0.514 Q 0.181 -0.61 0.249 -0.656 Q 0.317 -0.7020000000000001 0.382 -0.7020000000000001 Q 0.40800000000000003 -0.7020000000000001 0.434 -0.6930000000000001 Q 0.46 -0.684 0.487 -0.6625 Q 0.514 -0.641 0.5305 -0.5965 Q 0.547 -0.552 0.547 -0.49 M 0.198 -0.371 L 0.40700000000000003 -0.371 Q 0.44 -0.497 0.44 -0.5630000000000001 Q 0.44 -0.666 0.38 -0.666 Q 0.321 -0.666 0.268 -0.5720000000000001 Q 0.231 -0.508 0.198 -0.371 M 0.395 -0.323 L 0.186 -0.323 Q 0.153 -0.194 0.153 -0.13 Q 0.153 -0.09 0.165 -0.063 Q 0.181 -0.028 0.214 -0.028 Q 0.227 -0.028 0.2405 -0.0325 Q 0.254 -0.037 0.275 -0.055 Q 0.296 -0.073 0.315 -0.10300000000000001 Q 0.334 -0.133 0.3555 -0.19 Q 0.377 -0.247 0.395 -0.323 Z"/></g></g></g></g></svg>