<svg version="1.1" xmlns="http://www.w3.org/2000/svg" xmlns:xlink="http://www.w3.org/1999/xlink" width="1205" height="597"><defs><clipPath id="woUbTsuyIvDG"><path fill="none" stroke="none" d=" M 0 0 L 1205 0 L 1205 597 L 0 597 L 0 0 Z"/></clipPath></defs><g transform="scale(1,1)" clip-path="url(#woUbTsuyIvDG)"><g><rect fill="rgb(255,255,255)" stroke="none" x="0" y="0" width="1205" height="597" fill-opacity="1"/><path fill="rgb(0,0,0)" stroke="none" paint-order="stroke fill markers" d=" M 429.27758645307784 430.281746715048 C 429.2392929426278 419.5595637890306 423.481446527712 409.67297490626623 414.1744883816472 404.3487657481547 L 399.27777777777817 430.38888888888835 Z" fill-opacity="0.09803921568627451"/><path fill="none" stroke="rgb(0,0,0)" paint-order="fill stroke markers" d=" M 429.27758645307784 430.281746715048 C 429.2392929426278 419.5595637890306 423.481446527712 409.67297490626623 414.1744883816472 404.3487657481547 L 399.27777777777817 430.38888888888835 Z" stroke-opacity="0.6" stroke-linecap="round" stroke-linejoin="round" stroke-miterlimit="10" stroke-width="2"/><text fill="none" stroke="rgb(255,255,255)" font-family="geogebra-sans-serif, sans-serif" font-size="16px" font-style="normal" font-weight="normal" text-decoration="normal" x="411" y="426" text-anchor="start" dominant-baseline="alphabetic" stroke-opacity="1" stroke-linecap="round" stroke-linejoin="bevel" stroke-miterlimit="10" stroke-width="3">α = 60°</text><text fill="rgb(0,0,0)" stroke="none" font-family="geogebra-sans-serif, sans-serif" font-size="16px" font-style="normal" font-weight="normal" text-decoration="normal" x="411" y="426" text-anchor="start" dominant-baseline="alphabetic" fill-opacity="1">α = 60°</text><path fill="none" stroke="rgb(0,0,0)" paint-order="fill stroke markers" d=" M 399.27777777777817 430.38888888888835 L 571.7453873260819 128.90771563850907" stroke-opacity="0.8" stroke-linecap="round" stroke-linejoin="round" stroke-miterlimit="10" stroke-width="6.5"/><path fill="rgb(0,0,0)" stroke="none" paint-order="stroke fill markers" fill-rule="evenodd" d=" M 591.1111111111117 95.05555555555526 L 580.2084273468204 133.74914658476652 L 563.2823473053434 124.06628469225163 Z" fill-opacity="0.8"/><text fill="none" stroke="rgb(255,255,255)" font-family="geogebra-sans-serif, sans-serif" font-size="16px" font-style="normal" font-weight="normal" text-decoration="normal" x="486" y="257" text-anchor="start" dominant-baseline="alphabetic" stroke-opacity="1" stroke-linecap="round" stroke-linejoin="bevel" stroke-miterlimit="10" stroke-width="3">v</text><text fill="rgb(0,0,0)" stroke="none" font-family="geogebra-sans-serif, sans-serif" font-size="16px" font-style="normal" font-weight="normal" text-decoration="normal" x="486" y="257" text-anchor="start" dominant-baseline="alphabetic" fill-opacity="1">v</text><path fill="none" stroke="rgb(0,0,0)" paint-order="fill stroke markers" d=" M 399.27777777777817 430.38888888888835 L 780.2780264998889 429.02817371488084" stroke-opacity="0.8" stroke-linecap="round" stroke-linejoin="round" stroke-miterlimit="10" stroke-width="6.5"/><path fill="rgb(0,0,0)" stroke="none" paint-order="stroke fill markers" fill-rule="evenodd" d=" M 819.2777777777785 428.88888888888835 L 780.3128477063871 438.77811153435323 L 780.2432052933908 419.27823589540844 Z" fill-opacity="0.8"/><text fill="none" stroke="rgb(255,255,255)" font-family="geogebra-sans-serif, sans-serif" font-size="16px" font-style="normal" font-weight="normal" text-decoration="normal" x="609" y="419" text-anchor="start" dominant-baseline="alphabetic" stroke-opacity="1" stroke-linecap="round" stroke-linejoin="bevel" stroke-miterlimit="10" stroke-width="3">w</text><text fill="rgb(0,0,0)" stroke="none" font-family="geogebra-sans-serif, sans-serif" font-size="16px" font-style="normal" font-weight="normal" text-decoration="normal" x="609" y="419" text-anchor="start" dominant-baseline="alphabetic" fill-opacity="1">w</text><path fill="rgb(21,101,192)" stroke="none" paint-order="stroke fill markers" d=" M 404.27777777777817 430.38888888888835 C 404.27777777777817 433.1503126380423 402.0392015269321 435.38888888888835 399.27777777777817 435.38888888888835 C 396.5163540286242 435.38888888888835 394.27777777777817 433.1503126380423 394.27777777777817 430.38888888888835 C 394.27777777777817 427.6274651397344 396.5163540286242 425.38888888888835 399.27777777777817 425.38888888888835 C 402.0392015269321 425.38888888888835 404.27777777777817 427.6274651397344 404.27777777777817 430.38888888888835 Z" fill-opacity="1"/><path fill="none" stroke="rgb(0,0,0)" paint-order="fill stroke markers" d=" M 404.27777777777817 430.38888888888835 C 404.27777777777817 433.1503126380423 402.0392015269321 435.38888888888835 399.27777777777817 435.38888888888835 C 396.5163540286242 435.38888888888835 394.27777777777817 433.1503126380423 394.27777777777817 430.38888888888835 C 394.27777777777817 427.6274651397344 396.5163540286242 425.38888888888835 399.27777777777817 425.38888888888835 C 402.0392015269321 425.38888888888835 404.27777777777817 427.6274651397344 404.27777777777817 430.38888888888835 Z" stroke-opacity="1" stroke-linecap="round" stroke-linejoin="round" stroke-miterlimit="10"/><path fill="rgb(21,101,192)" stroke="none" paint-order="stroke fill markers" d=" M 596.1111111111115 95.05555555555526 C 596.1111111111115 97.81697930470922 593.8725348602655 100.05555555555526 591.1111111111115 100.05555555555526 C 588.3496873619575 100.05555555555526 586.1111111111115 97.81697930470922 586.1111111111115 95.05555555555526 C 586.1111111111115 92.2941318064013 588.3496873619575 90.05555555555526 591.1111111111115 90.05555555555526 C 593.8725348602655 90.05555555555526 596.1111111111115 92.2941318064013 596.1111111111115 95.05555555555526 Z" fill-opacity="1"/><path fill="none" stroke="rgb(0,0,0)" paint-order="fill stroke markers" d=" M 596.1111111111115 95.05555555555526 C 596.1111111111115 97.81697930470922 593.8725348602655 100.05555555555526 591.1111111111115 100.05555555555526 C 588.3496873619575 100.05555555555526 586.1111111111115 97.81697930470922 586.1111111111115 95.05555555555526 C 586.1111111111115 92.2941318064013 588.3496873619575 90.05555555555526 591.1111111111115 90.05555555555526 C 593.8725348602655 90.05555555555526 596.1111111111115 92.2941318064013 596.1111111111115 95.05555555555526 Z" stroke-opacity="1" stroke-linecap="round" stroke-linejoin="round" stroke-miterlimit="10"/><path fill="rgb(21,101,192)" stroke="none" paint-order="stroke fill markers" d=" M 824.2777777777785 428.88888888888835 C 824.2777777777785 431.6503126380423 822.0392015269325 433.88888888888835 819.2777777777785 433.88888888888835 C 816.5163540286245 433.88888888888835 814.2777777777785 431.6503126380423 814.2777777777785 428.88888888888835 C 814.2777777777785 426.1274651397344 816.5163540286245 423.88888888888835 819.2777777777785 423.88888888888835 C 822.0392015269325 423.88888888888835 824.2777777777785 426.1274651397344 824.2777777777785 428.88888888888835 Z" fill-opacity="1"/><path fill="none" stroke="rgb(0,0,0)" paint-order="fill stroke markers" d=" M 824.2777777777785 428.88888888888835 C 824.2777777777785 431.6503126380423 822.0392015269325 433.88888888888835 819.2777777777785 433.88888888888835 C 816.5163540286245 433.88888888888835 814.2777777777785 431.6503126380423 814.2777777777785 428.88888888888835 C 814.2777777777785 426.1274651397344 816.5163540286245 423.88888888888835 819.2777777777785 423.88888888888835 C 822.0392015269325 423.88888888888835 824.2777777777785 426.1274651397344 824.2777777777785 428.88888888888835 Z" stroke-opacity="1" stroke-linecap="round" stroke-linejoin="round" stroke-miterlimit="10"/><g transform="scale(35,35)"><g transform="translate(13.857142857142858,11.237302142857143)"><path fill="rgb(0,0,0)" stroke="none" paint-order="stroke fill markers" d=" M 0.547 -0.49 Q 0.547 -0.419 0.52 -0.3175 Q 0.493 -0.216 0.436 -0.133 Q 0.388 -0.061 0.3275 -0.0265 Q 0.267 0.008 0.212 0.008 Q 0.14 0.008 0.093 -0.0455 Q 0.046 -0.099 0.046 -0.203 Q 0.046 -0.267 0.0685 -0.3565 Q 0.091 -0.446 0.128 -0.514 Q 0.181 -0.61 0.249 -0.656 Q 0.317 -0.7020000000000001 0.382 -0.7020000000000001 Q 0.40800000000000003 -0.7020000000000001 0.434 -0.6930000000000001 Q 0.46 -0.684 0.487 -0.6625 Q 0.514 -0.641 0.5305 -0.5965 Q 0.547 -0.552 0.547 -0.49 M 0.198 -0.371 L 0.40700000000000003 -0.371 Q 0.44 -0.497 0.44 -0.5630000000000001 Q 0.44 -0.666 0.38 -0.666 Q 0.321 -0.666 0.268 -0.5720000000000001 Q 0.231 -0.508 0.198 -0.371 M 0.395 -0.323 L 0.186 -0.323 Q 0.153 -0.194 0.153 -0.13 Q 0.153 -0.09 0.165 -0.063 Q 0.181 -0.028 0.214 -0.028 Q 0.227 -0.028 0.2405 -0.0325 Q 0.254 -0.037 0.275 -0.055 Q 0.296 -0.073 0.315 -0.10300000000000001 Q 0.334 -0.133 0.3555 -0.19 Q 0.377 -0.247 0.395 -0.323 Z"/></g></g></g></g></svg>